<svg xmlns="http://www.w3.org/2000/svg" xmlns:xlink="http://www.w3.org/1999/xlink" viewBox="0 0 1200 260" width="100%" role="img" aria-label="Lucas Matheus — AI Engineer">
  <defs>
    <linearGradient id="accent" x1="0" y1="0" x2="1" y2="0">
      <stop offset="0" stop-color="#58a6ff"/>
      <stop offset="1" stop-color="#bc8cff"/>
    </linearGradient>
    <pattern id="dots" width="28" height="28" patternUnits="userSpaceOnUse">
      <circle cx="2" cy="2" r="1.3" fill="#e6edf3" opacity="0.07"/>
    </pattern>
    <g id="net">
      <g stroke="url(#accent)" stroke-width="1.2" opacity="0.35" fill="none">
        <path d="M70 195 L150 140 L115 70 L210 55 L245 125 L150 140 M245 125 L320 185"/>
      </g>
      <g opacity="0.75">
        <circle cx="70" cy="195" r="3.5" fill="#58a6ff"/>
        <circle cx="150" cy="140" r="4.5" fill="#bc8cff"/>
        <circle cx="115" cy="70" r="3" fill="#58a6ff"/>
        <circle cx="210" cy="55" r="3.5" fill="#bc8cff"/>
        <circle cx="245" cy="125" r="4" fill="#58a6ff"/>
        <circle cx="320" cy="185" r="3" fill="#bc8cff"/>
      </g>
    </g>
  </defs>
  <rect width="1200" height="260" fill="#0d1117"/>
  <rect width="1200" height="260" fill="url(#dots)"/>
  <use href="#net" xlink:href="#net"/>
  <use href="#net" xlink:href="#net" transform="translate(1200 0) scale(-1 1)"/>
  <text x="600" y="122" text-anchor="middle" font-family="Segoe UI, Helvetica, Arial, sans-serif" font-size="54" font-weight="700" fill="#e6edf3">Lucas Matheus</text>
  <text x="600" y="161" text-anchor="middle" font-family="Segoe UI, Helvetica, Arial, sans-serif" font-size="23" font-weight="600" letter-spacing="7" fill="url(#accent)">AI ENGINEER</text>
  <line x1="510" y1="180" x2="690" y2="180" stroke="url(#accent)" stroke-width="2" opacity="0.6"/>
  <text x="600" y="208" text-anchor="middle" font-family="Segoe UI, Helvetica, Arial, sans-serif" font-size="17" fill="#8b949e">LLM systems · RAG · fine-tuned embeddings · evals wired into CI</text>
</svg>
